<svg xmlns="http://www.w3.org/2000/svg" viewBox="0 0 64 64" id="cat"><path d="M61.75 37.64c-.73-.72-1.85-.88-2.67-.4-1.19.71-2.76 3.02-3.34 5.65-.51 2.32-.16 4.46 1 6.16.29.43.25 1.01.07 1.59-1.24-3.41-3.82-7.79-9.13-9.9-2.61-1.04-2.65-1.88-2.71-3.05v-.1c-.32-6.15-2.9-9.23-7.9-9.42-.36-.02-.68.16-.87.45-.27.41-.29.58.23 1.74-.64.14-1.35.42-1.89.96-1.16 1.16-1.23 2.64-1.06 3.53l-.33 1.06c-.16.52-.12 1.07.12 1.55.41.84 1.39 2.29 3.39 2.55h.12c-.88 2.6.13 5.09 1.69 6.91.11.83.18 2.58-.46 3.41-1.1 1.4-2.45 3.45-1.53 4.97.58.96 1.75 1.16 2.62 1.16.27 0 .51-.02.7-.04h17.13c1.56-.01 2.99-.91 3.92-2.47 1.25-2.1 1.33-4.82.19-6.92-1.35-2.49-.63-3.73.94-6.46.73-1.26.34-2.34-.26-2.93zm-21.07 15.15c-.42.99-1.55 1.52-1.86 1.66-.32-.03-.55-.1-.6-.18 0 0-.21-.65 1.39-2.7.51-.66.77-1.5.88-2.32.43.83.61 1.93.19 3.54zm10.92-1.56h-3.35c-1.97 0-3.61 1.37-4.06 3.2h-2.14c.21-.28.39-.6.53-.95.01-.03.02-.07.03-.1 1.02-3.75-.5-5.75-1.93-7.08-.83-.77-3.41-3.53-1.47-6.65.18-.3.2-.67.04-.99s-.48-.52-.83-.54l-1.53-.09c-.95-.12-1.5-.85-1.79-1.52l.41-1.32c.06-.18.05-.39 0-.58-.01-.04-.3-1.08.49-1.87.47-.47 1.58-.53 1.92-.51.37.03.69-.15.89-.44.2-.29.23-.67.08-.99-.06-.13-.13-.27-.19-.41 2.1.52 4.05 2.17 4.32 7.31v.1c.09 1.74.46 3.42 3.97 4.81 5.82 2.31 7.92 7.97 8.65 10.97l.15.85h-9.45c.37-.71 1.1-1.2 1.95-1.2h3.35c.55 0 1-.45 1-1s-.45-1-1-1zM29.69 48.53c-.53-.54-.91-.93-.91-1.8s-.46-1.84-1.15-2.73c.37-1.39 0-2.79-.56-3.99h.09c1.43-.19 2.63-1.12 3.31-2.58.21-.46.26-.98.12-1.47l-.31-1.09c.18-.9.12-2.4-1.08-3.56-.52-.51-1.24-.78-1.89-.92.54-1.18.52-1.35.25-1.77-.19-.29-.53-.47-.88-.45-5 .19-7.58 3.27-7.89 9.42v.1c-.06 1.17-.1 2.02-2.71 3.05-5.59 2.22-8.15 6.94-9.32 10.42-.32-.73-.51-1.55-.12-2.11 1.17-1.71 1.51-3.84 1-6.16-.58-2.63-2.15-4.94-3.34-5.65-.82-.49-1.94-.32-2.67.4-.6.59-.99 1.67-.26 2.93 1.57 2.73 2.29 3.97.95 6.46-1.14 2.1-1.06 4.82.19 6.92.94 1.57 2.38 2.47 3.95 2.47.07 0 .13-.02.19-.03.06 0 .11.03.16.03H24.64c.21.04.43.07.67.07.66 0 1.35-.21 1.75-.79.85-1.24-.19-3.04-1.2-4.47-.09-.13-.14-.29-.17-.47 1.05 1.35 2.07 2.05 3.05 2.05.02 0 .05 0 .08 0 .74-.03 1.38-.46 1.7-1.16.38-.82.26-1.84-.29-2.53-.16-.2-.34-.39-.54-.59zm-4.69 5.93c-.26-.11-1.46-.64-1.89-1.67-.59-2.23.01-3.55.88-4.52-.3.95-.69 2.81.24 4.12.85 1.21 1.08 1.84 1.13 2.11-.12 0-.25-.01-.36-.04zm3.74-3.65h0s-1.01-.09-2.75-3.24c-.47-.86-1-1.8-1.75-1.85h-.03c-.09 0-.18 0-.28.03-.04 0-.09.02-.13.03-.02 0-.03 0-.05.01-.05.02-.08.06-.12.09-.04.03-.09.04-.14.08-1.63 1.4-3.37 3.51-2.31 7.41 0 .04.02.07.04.1.14.35.32.67.53.95h-2.23c-.45-1.83-2.1-3.2-4.06-3.2h-3.35c-.55 0-1 .45-1 1s.45 1 1 1h3.35c.85 0 1.58.49 1.95 1.2H8c.51-2.62 2.41-9.26 8.83-11.81 3.51-1.4 3.88-3.07 3.96-4.81v-.1c.27-5.13 2.22-6.79 4.32-7.31-.06.14-.13.28-.19.41-.15.31-.12.68.06.97.19.29.51.47.86.46.45-.01 1.56.12 1.97.52.79.77.49 1.8.48 1.84-.06.19-.06.39 0 .58l.38 1.43c-.22.48-.75 1.31-1.69 1.43l-1.59.1s-.03 0-.04.01c-.07 0-.14.03-.21.05-.06.02-.12.03-.17.06-.01 0-.03 0-.05.02-.04.03-.07.07-.11.1-.05.04-.1.08-.14.13-.04.05-.07.11-.1.17-.03.05-.06.1-.07.16-.02.07-.03.14-.03.22 0 .04-.02.08-.02.13 0 .02 0 .03.01.04 0 .07.03.13.05.2.02.06.04.13.07.18 0 .01 0 .03.02.04.67 1.09.99 1.9 1.12 2.53-.82-.59-1.69-1.04-2.49-1.23-.54-.13-1.08.2-1.2.74-.13.54.2 1.08.74 1.2 1.82.43 4.02 2.73 4.02 3.84 0 1.69.85 2.56 1.48 3.2.14.15.28.28.4.43.11.14.08.41.08.45zM36.87 7.51c-1.32 0-2.6.45-3.62 1.26-.48.38-.89.82-1.22 1.31-.33-.49-.74-.93-1.22-1.31-1.02-.81-2.31-1.26-3.63-1.26-3.22 0-5.84 2.62-5.84 5.85 0 5.85 9.73 12.17 10.14 12.43.16.11.35.16.54.16s.38-.05.54-.16c.41-.27 10.15-6.58 10.15-12.43 0-3.22-2.62-5.85-5.84-5.85z"></path></svg>